<svg width="40" height="40" viewBox="0 0 40 40" fill="none" xmlns="http://www.w3.org/2000/svg">
<g filter="url(#filter0_d_464_1066)">
<path d="M2 9C2 4.58172 5.58172 1 10 1H30C34.4183 1 38 4.58172 38 9V29C38 33.4183 34.4183 37 30 37H10C5.58172 37 2 33.4183 2 29V9Z" fill="#017777"/>
<path d="M10 1.5H30C34.1421 1.5 37.5 4.85786 37.5 9V29C37.5 33.1421 34.1421 36.5 30 36.5H10C5.85786 36.5 2.5 33.1421 2.5 29V9C2.5 4.85786 5.85786 1.5 10 1.5Z" stroke="#044645"/>
<path d="M14.167 25.6667V24.8333C14.167 21.6117 16.7787 19 20.0003 19C23.222 19 25.8337 21.6117 25.8337 24.8333V25.6667" stroke="white" stroke-width="1.5" stroke-linecap="round" stroke-linejoin="round"/>
<path d="M20.0003 18.9997C21.8412 18.9997 23.3337 17.5073 23.3337 15.6663C23.3337 13.8254 21.8412 12.333 20.0003 12.333C18.1594 12.333 16.667 13.8254 16.667 15.6663C16.667 17.5073 18.1594 18.9997 20.0003 18.9997Z" stroke="white" stroke-width="1.5" stroke-linecap="round" stroke-linejoin="round"/>
</g>
<defs>
<filter id="filter0_d_464_1066" x="0" y="0" width="40" height="40" filterUnits="userSpaceOnUse" color-interpolation-filters="sRGB">
<feFlood flood-opacity="0" result="BackgroundImageFix"/>
<feColorMatrix in="SourceAlpha" type="matrix" values="0 0 0 0 0 0 0 0 0 0 0 0 0 0 0 0 0 0 127 0" result="hardAlpha"/>
<feOffset dy="1"/>
<feGaussianBlur stdDeviation="1"/>
<feColorMatrix type="matrix" values="0 0 0 0 0.0627451 0 0 0 0 0.0941176 0 0 0 0 0.156863 0 0 0 0.05 0"/>
<feBlend mode="normal" in2="BackgroundImageFix" result="effect1_dropShadow_464_1066"/>
<feBlend mode="normal" in="SourceGraphic" in2="effect1_dropShadow_464_1066" result="shape"/>
</filter>
</defs>
</svg>
