<svg width="20" height="20" viewBox="0 0 20 20" fill="none" xmlns="http://www.w3.org/2000/svg">
<path d="M9.16699 13.333V4.16634C9.16699 3.94533 9.25479 3.73337 9.41107 3.57709C9.56735 3.42081 9.77931 3.33301 10.0003 3.33301C10.2213 3.33301 10.4333 3.42081 10.5896 3.57709C10.7459 3.73337 10.8337 3.94533 10.8337 4.16634V13.333H11.667C11.888 13.333 12.1 13.4208 12.2562 13.5771C12.4125 13.7334 12.5003 13.9453 12.5003 14.1663C12.5003 14.3874 12.4125 14.5993 12.2562 14.7556C12.1 14.9119 11.888 14.9997 11.667 14.9997H10.8337V15.833C10.8337 16.054 10.7459 16.266 10.5896 16.4223C10.4333 16.5785 10.2213 16.6663 10.0003 16.6663C9.77931 16.6663 9.56735 16.5785 9.41107 16.4223C9.25479 16.266 9.16699 16.054 9.16699 15.833V14.9997H8.33366C8.11265 14.9997 7.90068 14.9119 7.7444 14.7556C7.58812 14.5993 7.50033 14.3874 7.50033 14.1663C7.50033 13.9453 7.58812 13.7334 7.7444 13.5771C7.90068 13.4208 8.11265 13.333 8.33366 13.333H9.16699ZM15.0003 4.99967V4.16634C15.0003 3.94533 15.0881 3.73337 15.2444 3.57709C15.4007 3.42081 15.6126 3.33301 15.8337 3.33301C16.0547 3.33301 16.2666 3.42081 16.4229 3.57709C16.5792 3.73337 16.667 3.94533 16.667 4.16634V4.99967H17.5003C17.7213 4.99967 17.9333 5.08747 18.0896 5.24375C18.2459 5.40003 18.3337 5.61199 18.3337 5.83301C18.3337 6.05402 18.2459 6.26598 18.0896 6.42226C17.9333 6.57854 17.7213 6.66634 17.5003 6.66634H16.667V15.833C16.667 16.054 16.5792 16.266 16.4229 16.4223C16.2666 16.5785 16.0547 16.6663 15.8337 16.6663C15.6126 16.6663 15.4007 16.5785 15.2444 16.4223C15.0881 16.266 15.0003 16.054 15.0003 15.833V6.66634H14.167C13.946 6.66634 13.734 6.57854 13.5777 6.42226C13.4215 6.26598 13.3337 6.05402 13.3337 5.83301C13.3337 5.61199 13.4215 5.40003 13.5777 5.24375C13.734 5.08747 13.946 4.99967 14.167 4.99967H15.0003ZM5.00033 7.49967H5.83366C6.05467 7.49967 6.26663 7.58747 6.42291 7.74375C6.57919 7.90003 6.66699 8.11199 6.66699 8.33301C6.66699 8.55402 6.57919 8.76598 6.42291 8.92226C6.26663 9.07854 6.05467 9.16634 5.83366 9.16634H5.00033V15.833C5.00033 16.054 4.91253 16.266 4.75625 16.4223C4.59997 16.5785 4.38801 16.6663 4.16699 16.6663C3.94598 16.6663 3.73402 16.5785 3.57774 16.4223C3.42146 16.266 3.33366 16.054 3.33366 15.833V9.16634H2.50033C2.27931 9.16634 2.06735 9.07854 1.91107 8.92226C1.75479 8.76598 1.66699 8.55402 1.66699 8.33301C1.66699 8.11199 1.75479 7.90003 1.91107 7.74375C2.06735 7.58747 2.27931 7.49967 2.50033 7.49967H3.33366V4.16634C3.33366 3.94533 3.42146 3.73337 3.57774 3.57709C3.73402 3.42081 3.94598 3.33301 4.16699 3.33301C4.38801 3.33301 4.59997 3.42081 4.75625 3.57709C4.91253 3.73337 5.00033 3.94533 5.00033 4.16634V7.49967Z" fill="#21272A"/>
</svg>
