<svg width="44" height="44" viewBox="0 0 44 44" fill="none" xmlns="http://www.w3.org/2000/svg">
<rect width="44" height="44" rx="8" fill="url(#paint0_linear_81_1890)"/>
<path d="M3.66953 28.2461V14.0911H9.10353C10.0789 14.0911 10.9402 14.2621 11.6875 14.6041C12.4475 14.9461 13.0429 15.4528 13.4735 16.1241C13.9042 16.7954 14.1195 17.6251 14.1195 18.6131C14.1195 19.5758 13.8979 20.3928 13.4545 21.0641C13.0239 21.7354 12.4285 22.2484 11.6685 22.6031C10.9212 22.9451 10.0662 23.1161 9.10353 23.1161H6.61453V28.2461H3.66953ZM6.61453 20.5511H9.12253C9.54053 20.5511 9.90153 20.4688 10.2055 20.3041C10.5095 20.1394 10.7439 19.9114 10.9085 19.6201C11.0859 19.3288 11.1745 18.9931 11.1745 18.6131C11.1745 18.2204 11.0859 17.8784 10.9085 17.5871C10.7439 17.2958 10.5095 17.0678 10.2055 16.9031C9.90153 16.7384 9.54053 16.6561 9.12253 16.6561H6.61453V20.5511ZM13.8316 28.2461L18.6196 14.0911H22.5336L27.3216 28.2461H24.1106L23.1606 25.3581H17.9736L17.0236 28.2461H13.8316ZM18.7906 22.7931H22.3436L20.1776 16.1051H20.9756L18.7906 22.7931ZM28.7926 28.2461V14.0911H33.4096C34.9422 14.0911 36.2722 14.3951 37.3996 15.0031C38.5269 15.6111 39.4009 16.4471 40.0216 17.5111C40.6422 18.5751 40.9526 19.7911 40.9526 21.1591C40.9526 22.5271 40.6422 23.7494 40.0216 24.8261C39.4009 25.8901 38.5269 26.7261 37.3996 27.3341C36.2722 27.9421 34.9422 28.2461 33.4096 28.2461H28.7926ZM31.7376 25.6811H33.4856C34.4102 25.6811 35.2082 25.4974 35.8796 25.1301C36.5509 24.7501 37.0702 24.2244 37.4376 23.5531C37.8176 22.8691 38.0076 22.0711 38.0076 21.1591C38.0076 20.2344 37.8176 19.4364 37.4376 18.7651C37.0702 18.0938 36.5509 17.5744 35.8796 17.2071C35.2082 16.8398 34.4102 16.6561 33.4856 16.6561H31.7376V25.6811Z" fill="white"/>
<mask id="mask0_81_1890" style="mask-type:alpha" maskUnits="userSpaceOnUse" x="0" y="0" width="44" height="44">
<rect width="44" height="44" rx="8" fill="black"/>
</mask>
<g mask="url(#mask0_81_1890)">
<path d="M13.6386 35.7333C0.626505 39 -16 34.3333 -16 42.2667V46H44V25C33.1566 25.9333 30.5358 31.4913 13.6386 35.7333Z" fill="url(#paint1_linear_81_1890)"/>
</g>
<defs>
<linearGradient id="paint0_linear_81_1890" x1="22" y1="44" x2="22" y2="0" gradientUnits="userSpaceOnUse">
<stop stop-color="#044645"/>
<stop offset="1" stop-color="#0AACAA"/>
</linearGradient>
<linearGradient id="paint1_linear_81_1890" x1="14" y1="46" x2="14" y2="22.2" gradientUnits="userSpaceOnUse">
<stop stop-color="#017777"/>
<stop offset="1" stop-color="#02DDDD"/>
</linearGradient>
</defs>
</svg>
