<svg width="69" height="69" viewBox="0 0 69 69" fill="none" xmlns="http://www.w3.org/2000/svg">
<path d="M5.72412 54.379V25.7584C5.72412 22.597 8.2869 20.0342 11.4483 20.0342H12.8793C14.681 20.0342 16.3776 19.1859 17.4586 17.7446L23.8124 9.27283C24.1367 8.84043 24.6457 8.58594 25.1862 8.58594H43.5034C44.0441 8.58594 44.553 8.84043 44.8772 9.27283L51.231 17.7446C52.312 19.1859 54.0087 20.0342 55.8103 20.0342H57.2414C60.4028 20.0342 62.9655 22.597 62.9655 25.7584V54.379C62.9655 57.5405 60.4028 60.1032 57.2414 60.1032H11.4483C8.2869 60.1032 5.72412 57.5405 5.72412 54.379Z" stroke="white" stroke-width="4.2931" stroke-linecap="round" stroke-linejoin="round"/>
<path d="M34.3448 48.6553C40.6674 48.6553 45.793 43.5297 45.793 37.2071C45.793 30.8845 40.6674 25.7588 34.3448 25.7588C28.022 25.7588 22.8965 30.8845 22.8965 37.2071C22.8965 43.5297 28.022 48.6553 34.3448 48.6553Z" stroke="white" stroke-width="4.2931" stroke-linecap="round" stroke-linejoin="round"/>
</svg>
