<?xml version="1.0" encoding="UTF-8"?>
<svg id="Layer_2" data-name="Layer 2" xmlns="http://www.w3.org/2000/svg" xmlns:xlink="http://www.w3.org/1999/xlink" viewBox="0 0 1334.09 820.31">
  <defs>
    <style>
      .cls-1 {
        fill: url(#linear-gradient);
      }

      .cls-1, .cls-2, .cls-3, .cls-4, .cls-5, .cls-6, .cls-7, .cls-8, .cls-9, .cls-10 {
        stroke-width: 0px;
      }

      .cls-2 {
        fill: url(#linear-gradient-6);
      }

      .cls-3 {
        fill: url(#linear-gradient-5);
      }

      .cls-4 {
        fill: url(#linear-gradient-2);
      }

      .cls-5 {
        fill: url(#linear-gradient-7);
      }

      .cls-6 {
        fill: url(#linear-gradient-3);
      }

      .cls-7 {
        fill: url(#linear-gradient-9);
      }

      .cls-8 {
        fill: #b2b2b2;
      }

      .cls-9 {
        fill: url(#linear-gradient-8);
      }

      .cls-10 {
        fill: url(#linear-gradient-4);
      }
    </style>
    <linearGradient id="linear-gradient" x1="108.52" y1="192.6" x2="1274.34" y2="841.18" gradientUnits="userSpaceOnUse">
      <stop offset="0" stop-color="#e4dede"/>
      <stop offset="1" stop-color="#4a726f"/>
    </linearGradient>
    <linearGradient id="linear-gradient-2" x1="429.84" y1="72.33" x2="471.96" y2="72.33" gradientUnits="userSpaceOnUse">
      <stop offset="0" stop-color="#e4dede"/>
      <stop offset="1" stop-color="#07504f"/>
    </linearGradient>
    <linearGradient id="linear-gradient-3" x1="840.86" y1="59.86" x2="893.1" y2="59.86" xlink:href="#linear-gradient-2"/>
    <linearGradient id="linear-gradient-4" x1="85.67" y1="312.81" x2="283.94" y2="312.81" gradientUnits="userSpaceOnUse">
      <stop offset="0" stop-color="#e4dede"/>
      <stop offset="1" stop-color="#004c4f"/>
    </linearGradient>
    <linearGradient id="linear-gradient-5" x1="63.61" y1="441.89" x2="460.41" y2="441.89" xlink:href="#linear-gradient-2"/>
    <linearGradient id="linear-gradient-6" x1="19.49" y1="470.02" x2="1120.94" y2="470.02" xlink:href="#linear-gradient-2"/>
    <linearGradient id="linear-gradient-7" x1="487.95" y1="411.67" x2="487.95" y2="528.37" gradientUnits="userSpaceOnUse">
      <stop offset="0" stop-color="#e4dede"/>
      <stop offset=".15" stop-color="#b5bfbf"/>
      <stop offset=".38" stop-color="#779897"/>
      <stop offset=".58" stop-color="#477978"/>
      <stop offset=".76" stop-color="#246261"/>
      <stop offset=".9" stop-color="#0e5454"/>
      <stop offset="1" stop-color="#07504f"/>
    </linearGradient>
    <linearGradient id="linear-gradient-8" x1="614.12" y1="119.72" x2="614.12" y2="457.43" xlink:href="#linear-gradient-2"/>
    <linearGradient id="linear-gradient-9" x1="1167.65" y1="140.5" x2="1167.65" y2="811.41" xlink:href="#linear-gradient-7"/>
  </defs>
  <g id="Capa_1" data-name="Capa 1">
    <g>
      <g>
        <path class="cls-8" d="M0,823.15c-.84,0-1.63-.37-2.17-1.01-.54-.64-.77-1.48-.63-2.31L116.94,119.25c.23-1.36,1.41-2.36,2.79-2.36h282.49l19.44-108.23c.56-3.12,2.29-5.88,5.01-7.99,2.61-2.29,6-3.5,9.81-3.5h436.1c4.54,0,8.58,1.84,11.37,5.18,3.07,3.67,4.35,8.88,3.44,13.94l-18.07,100.6h345.02c1.38,0,2.56,1,2.79,2.36l119.74,700.59c.14.82-.09,1.67-.63,2.31-.54.64-1.33,1.01-2.17,1.01H0ZM813.24,116.89l16.01-89.11h-354.92l-16.01,89.11h354.92Z"/>
        <path class="cls-8" d="M429.84,122.56c-.84,0-1.64-.37-2.17-1.02-.54-.64-.76-1.49-.62-2.32l17.03-94.78c.24-1.35,1.42-2.33,2.79-2.33h25.09c.84,0,1.64.37,2.17,1.02.54.64.76,1.49.62,2.32l-17.03,94.78c-.24,1.35-1.42,2.33-2.79,2.33h-25.09Z"/>
        <path class="cls-8" d="M840.85,122.56c-.84,0-1.64-.37-2.17-1.02-.54-.64-.76-1.49-.62-2.32l18.67-103.94c.62-3.43-.21-6.91-2.21-9.3-1.72-2.06-4.15-3.15-7.03-3.15-1.57,0-2.83-1.27-2.83-2.83s1.27-2.83,2.83-2.83h25.09c4.54,0,8.58,1.84,11.37,5.18,3.07,3.67,4.35,8.88,3.44,13.94l-18.67,103.94c-.24,1.35-1.42,2.33-2.79,2.33h-25.09Z"/>
        <g>
          <path class="cls-8" d="M85.67,321.88c-.84,0-1.63-.37-2.17-1.01-.54-.64-.77-1.48-.63-2.31l2.13-12.47c.23-1.36,1.41-2.36,2.79-2.36h178.72c.59,0,1.17.19,1.65.53l17.42,12.47c1,.72,1.43,2,1.05,3.17-.38,1.17-1.47,1.97-2.7,1.97H85.67Z"/>
          <path class="cls-8" d="M63.61,450.96c-.84,0-1.63-.37-2.17-1.01-.54-.64-.77-1.48-.63-2.31l2.13-12.47c.23-1.36,1.41-2.36,2.79-2.36h381.02c.59,0,1.17.19,1.65.53l13.65,9.77c1.08.78,1.48,2.2.95,3.43-.37.86-.73,1.73-1.08,2.62-.43,1.08-1.47,1.79-2.64,1.79H63.61Z"/>
          <path class="cls-8" d="M1001.21,823.15c-.16,0-.32-.01-.48-.04-1.54-.26-2.58-1.73-2.32-3.27l18.92-110.72H19.49c-.84,0-1.63-.37-2.17-1.01-.54-.64-.77-1.48-.63-2.31l2.13-12.47c.23-1.36,1.41-2.36,2.79-2.36h998.81l18.96-110.93H41.55c-.84,0-1.63-.37-2.17-1.01s-.77-1.48-.63-2.31l2.13-12.47c.23-1.36,1.41-2.36,2.79-2.36h998.81l18.96-110.94h-516.35c-1.34,0-2.5-.94-2.78-2.26-.27-1.32.41-2.64,1.65-3.18l28.69-12.47c.36-.16.74-.24,1.13-.24h490.75l18.96-110.94h-241.45c-1.34,0-2.5-.94-2.78-2.26s.41-2.64,1.65-3.18l28.69-12.47c.36-.16.74-.24,1.13-.24h215.86l31.53-184.49c.24-1.38,1.43-2.36,2.79-2.36.16,0,.32.01.48.04,1.54.26,2.58,1.73,2.32,3.27l-119.74,700.59c-.24,1.38-1.43,2.36-2.79,2.36Z"/>
        </g>
        <path class="cls-8" d="M478.9,531.2c-1.77,0-3.53-.2-5.23-.61-9.86-2.32-17.48-10.99-21.45-24.4-3.81-12.86-3.84-28.71-.09-44.62,1.18-4.99,2.7-9.86,4.53-14.49.37-.94.75-1.87,1.15-2.78,9.29-21.55,24.67-35.47,39.19-35.47,1.77,0,3.53.2,5.23.6,15.39,3.63,24.93,22.5,24.3,48.07-.17,6.87-1.1,13.92-2.75,20.96-7.2,30.56-26.07,52.74-44.87,52.74h0Z"/>
        <path class="cls-8" d="M523.69,460.27c-.56,0-1.11-.16-1.58-.48-.8-.54-1.27-1.45-1.25-2.42.56-22.43-7.46-39.47-19.93-42.41-1.28-.3-2.6-.45-3.93-.45-12.26,0-25.6,12.58-33.99,32.05-.34.79-1.02,1.38-1.84,1.61-.25.07-.51.1-.76.1-.59,0-1.16-.18-1.65-.53L105.64,194.85c-.88-.63-1.33-1.71-1.14-2.78l12.45-72.82c.23-1.36,1.41-2.36,2.79-2.36h1001.2c.83,0,1.63.37,2.17,1.01.54.64.77,1.48.63,2.31l-14.42,84.37c-.16.94-.79,1.74-1.66,2.12l-582.83,253.34c-.36.16-.75.24-1.13.24Z"/>
        <path class="cls-8" d="M1001.2,823.15c-.83,0-1.63-.37-2.17-1.01-.54-.64-.77-1.48-.63-2.31l119.74-700.59c.23-1.36,1.41-2.36,2.79-2.36h93.41c1.38,0,2.56,1,2.79,2.36l119.74,700.59c.14.82-.09,1.67-.63,2.31-.54.64-1.33,1.01-2.17,1.01h-332.88Z"/>
      </g>
      <g>
        <path class="cls-1" d="M1214.35,119.72h-348.41c3.93-21.85,7.85-43.71,11.78-65.56l6.89-38.37c1.41-7.86-3.34-15.79-12.03-15.79h-436.1c-3.38,0-6.05,1.11-8,2.85-2.04,1.56-3.56,3.7-4.02,6.3-6.3,35.05-12.59,70.1-18.89,105.15l-.97,5.41H119.74L0,820.31h1334.09l-119.74-700.59ZM832.64,24.95l-16.05,89.37-.97,5.41h-360.68c3.93-21.85,7.85-43.71,11.78-65.56,1.75-9.74,3.5-19.48,5.25-29.22h360.68Z"/>
        <path class="cls-4" d="M471.96,24.95h-25.09c-1.75,9.74-3.5,19.48-5.25,29.22-3.93,21.85-7.85,43.71-11.78,65.56h25.09c3.93-21.85,7.85-43.71,11.78-65.56,1.75-9.74,3.5-19.48,5.25-29.22Z"/>
        <path class="cls-6" d="M859.53,15.79l-6.89,38.37c-3.93,21.85-7.85,43.71-11.78,65.56h25.09c3.93-21.85,7.85-43.71,11.78-65.56l6.89-38.37c1.41-7.86-3.34-15.79-12.03-15.79h-25.09c8.69,0,13.44,7.93,12.03,15.79Z"/>
        <g>
          <polygon class="cls-10" points="266.52 306.58 87.8 306.58 85.96 317.37 85.67 319.05 283.94 319.05 266.52 306.58"/>
          <path class="cls-3" d="M460.41,445.43l-13.65-9.77H65.74l-2.13,12.47h395.68c.36-.91.73-1.81,1.11-2.7Z"/>
          <polygon class="cls-2" points="1120.94 119.72 1089.01 306.58 870.76 306.58 842.06 319.05 1086.87 319.05 1066.95 435.65 573.8 435.65 545.11 448.13 1064.81 448.13 1044.88 564.73 43.68 564.73 42.91 569.24 41.55 577.2 1042.75 577.2 1022.82 693.81 21.62 693.81 19.49 706.28 1020.69 706.28 1001.2 820.31 1120.94 119.72"/>
        </g>
        <path class="cls-5" d="M454.89,462.23c-7.52,31.93,1.18,61.31,19.44,65.61,18.26,4.3,39.16-18.1,46.69-50.03,1.65-6.99,2.52-13.86,2.68-20.38.57-23.22-7.86-41.88-22.12-45.24-14.85-3.5-31.44,10.65-41.17,33.23-.38.89-.75,1.79-1.11,2.7-1.75,4.43-3.24,9.15-4.41,14.1Z"/>
        <path class="cls-9" d="M107.29,192.55l159.23,114.03,17.42,12.47,162.83,116.61,13.65,9.77c9.73-22.58,26.33-36.73,41.17-33.23,14.26,3.36,22.69,22.02,22.12,45.24l21.41-9.31,28.69-12.47,268.26-116.61,28.69-12.47,235.76-102.48,14.42-84.37H119.74l-2.3,13.45-10.15,59.37Z"/>
        <polygon class="cls-7" points="1214.35 119.72 1120.94 119.72 1001.2 820.31 1334.09 820.31 1214.35 119.72"/>
      </g>
    </g>
  </g>
</svg>